<svg xmlns="http://www.w3.org/2000/svg" xmlns:xlink="http://www.w3.org/1999/xlink" zoomAndPan="magnify" preserveAspectRatio="xMidYMid meet" version="1.0" viewBox="3.94 8.96 367.13 79.7"><defs><g/></defs><g fill="#0052ff" fill-opacity="1"><g transform="translate(0.656254, 69.80032)"><g><path d="M 3.28125 0 L 15.824219 0 L 15.824219 -23.039062 C 15.824219 -28.777344 18.859375 -32.632812 24.023438 -32.632812 C 28.285156 -32.632812 30.828125 -29.925781 30.828125 -25.335938 L 30.828125 0 L 43.289062 0 L 43.289062 -23.039062 C 43.289062 -28.777344 46.324219 -32.632812 51.570312 -32.632812 C 55.753906 -32.632812 58.292969 -29.925781 58.292969 -25.335938 L 58.292969 0 L 70.839844 0 L 70.839844 -28.121094 C 70.839844 -37.632812 65.921875 -43.207031 57.640625 -43.207031 C 51.242188 -43.207031 45.667969 -40.257812 42.472656 -34.027344 L 42.390625 -34.027344 C 40.585938 -40.011719 36.238281 -43.207031 29.679688 -43.207031 C 23.203125 -43.207031 17.628906 -39.929688 15.332031 -34.355469 L 15.25 -34.355469 L 13.363281 -41.980469 L 3.28125 -41.980469 Z M 3.28125 0 "/></g></g></g><g fill="#0052ff" fill-opacity="1"><g transform="translate(74.5242, 69.80032)"><g><path d="M 25.171875 1.640625 C 39.273438 1.640625 48.539062 -7.296875 48.539062 -20.988281 C 48.539062 -34.683594 39.273438 -43.617188 25.171875 -43.617188 C 11.152344 -43.617188 1.886719 -34.683594 1.886719 -20.988281 C 1.886719 -7.296875 11.152344 1.640625 25.171875 1.640625 Z M 25.171875 -8.773438 C 18.449219 -8.773438 14.183594 -13.445312 14.183594 -20.988281 C 14.183594 -28.53125 18.449219 -33.207031 25.171875 -33.207031 C 31.894531 -33.207031 36.15625 -28.53125 36.15625 -20.988281 C 36.15625 -13.445312 31.894531 -8.773438 25.171875 -8.773438 Z M 25.171875 -8.773438 "/></g></g></g><g fill="#0052ff" fill-opacity="1"><g transform="translate(124.862614, 69.80032)"><g><path d="M 30.417969 1.230469 C 41.40625 1.230469 49.113281 -7.707031 49.113281 -20.988281 C 49.113281 -34.355469 41.40625 -43.207031 30.417969 -43.207031 C 23.941406 -43.207031 18.859375 -40.011719 15.90625 -33.945312 L 15.824219 -33.945312 L 15.824219 -60.835938 L 3.28125 -60.835938 L 3.28125 0 L 13.773438 0 L 15.660156 -8.035156 L 15.742188 -8.035156 C 18.695312 -1.96875 23.777344 1.230469 30.417969 1.230469 Z M 25.910156 -9.347656 C 19.757812 -9.347656 15.332031 -14.429688 15.332031 -20.988281 C 15.332031 -27.628906 19.757812 -32.632812 25.910156 -32.632812 C 32.140625 -32.632812 36.566406 -27.628906 36.566406 -20.988281 C 36.566406 -14.347656 32.140625 -9.347656 25.910156 -9.347656 Z M 25.910156 -9.347656 "/></g></g></g><g fill="#0052ff" fill-opacity="1"><g transform="translate(175.856911, 69.80032)"><g><path d="M 16.890625 1.230469 C 23.53125 1.230469 28.777344 -1.96875 31.8125 -7.625 L 31.894531 -7.625 L 33.78125 0 L 44.355469 0 L 44.355469 -41.980469 L 31.8125 -41.980469 L 31.8125 -18.777344 C 31.8125 -13.035156 28.039062 -9.183594 22.628906 -9.183594 C 18.285156 -9.183594 15.578125 -12.132812 15.578125 -16.890625 L 15.578125 -41.980469 L 3.035156 -41.980469 L 3.035156 -13.035156 C 3.035156 -4.097656 8.28125 1.230469 16.890625 1.230469 Z M 16.890625 1.230469 "/></g></g></g><g fill="#0052ff" fill-opacity="1"><g transform="translate(223.571813, 69.80032)"><g><path d="M 3.28125 17.21875 L 15.824219 17.21875 L 15.824219 -8.035156 L 15.90625 -8.035156 C 18.859375 -1.96875 23.941406 1.230469 30.417969 1.230469 C 41.40625 1.230469 49.113281 -7.707031 49.113281 -20.988281 C 49.113281 -34.355469 41.40625 -43.207031 30.417969 -43.207031 C 23.777344 -43.207031 18.695312 -40.011719 15.742188 -33.945312 L 15.660156 -33.945312 L 13.773438 -41.980469 L 3.28125 -41.980469 Z M 25.910156 -9.429688 C 19.757812 -9.429688 15.332031 -14.429688 15.332031 -20.988281 C 15.332031 -27.628906 19.757812 -32.632812 25.910156 -32.632812 C 32.140625 -32.632812 36.566406 -27.710938 36.566406 -20.988281 C 36.566406 -14.429688 32.140625 -9.429688 25.910156 -9.429688 Z M 25.910156 -9.429688 "/></g></g></g><g fill="#0052ff" fill-opacity="1"><g transform="translate(274.56611, 69.80032)"><g><path d="M 16.234375 1.230469 C 23.285156 1.230469 28.777344 -2.214844 31.484375 -7.214844 L 31.566406 -7.214844 L 31.730469 -5.738281 C 32.304688 -1.886719 36.238281 1.230469 41.324219 1.230469 C 45.175781 1.230469 49.523438 -0.0820312 52.0625 -2.625 L 49.113281 -9.265625 C 48.210938 -8.117188 46.898438 -7.378906 45.832031 -7.378906 C 44.519531 -7.378906 43.699219 -8.527344 43.699219 -10.414062 L 43.699219 -26.648438 C 43.699219 -37.140625 35.746094 -43.617188 23.449219 -43.617188 C 11.398438 -43.617188 3.28125 -37.304688 2.542969 -28.613281 L 14.757812 -26.730469 C 15.167969 -30.910156 18.695312 -34.519531 23.777344 -34.519531 C 28.285156 -34.519531 31.402344 -32.140625 31.402344 -28.53125 C 31.402344 -26.8125 30.089844 -25.664062 28.121094 -25.5 L 20.003906 -24.515625 C 7.460938 -23.203125 1.230469 -17.957031 1.230469 -10.742188 C 1.230469 -3.527344 7.460938 1.230469 16.234375 1.230469 Z M 20.988281 -7.378906 C 16.808594 -7.378906 13.773438 -9.347656 13.773438 -12.214844 C 13.773438 -14.921875 16.152344 -17.136719 23.121094 -17.957031 L 31.15625 -18.859375 L 31.15625 -17.136719 C 31.15625 -11.480469 26.894531 -7.378906 20.988281 -7.378906 Z M 20.988281 -7.378906 "/></g></g></g><g fill="#0052ff" fill-opacity="1"><g transform="translate(326.626196, 69.80032)"><g><path d="M 19.839844 18.859375 C 34.683594 18.859375 44.4375 10.496094 44.4375 -2.871094 L 44.4375 -41.980469 L 31.894531 -41.980469 L 31.894531 -17.792969 C 31.894531 -12.296875 28.039062 -8.527344 23.121094 -8.527344 C 18.449219 -8.527344 15.660156 -12.050781 15.660156 -17.136719 L 15.660156 -41.980469 L 3.199219 -41.980469 L 3.199219 -14.921875 C 3.199219 -4.917969 9.019531 1.640625 18.367188 1.640625 C 24.105469 1.640625 29.269531 -1.558594 31.894531 -6.886719 L 31.976562 -6.886719 L 31.976562 -3.28125 C 31.976562 3.933594 26.8125 8.445312 18.777344 8.445312 C 12.707031 8.445312 6.96875 5.902344 3.527344 2.050781 L -1.066406 11.152344 C 3.117188 15.824219 10.988281 18.859375 19.839844 18.859375 Z M 19.839844 18.859375 "/></g></g></g></svg>